<?xml version="1.0" standalone="no"?>
<!DOCTYPE svg PUBLIC "-//W3C//DTD SVG 20010904//EN"
 "http://www.w3.org/TR/2001/REC-SVG-20010904/DTD/svg10.dtd">
<svg version="1.0" xmlns="http://www.w3.org/2000/svg"
 width="512.000000pt" height="512.000000pt" viewBox="0 0 512.000000 512.000000"
 preserveAspectRatio="xMidYMid meet">

<g transform="translate(0.000000,512.000000) scale(0.100000,-0.100000)"
fill="#000000" stroke="none">
<path d="M1590 5110 c-377 -52 -607 -249 -735 -633 -72 -214 -105 -533 -87
-827 l10 -165 -29 -69 c-60 -142 -97 -343 -84 -465 14 -143 70 -283 139 -350
l33 -32 -102 -102 c-324 -326 -613 -845 -680 -1220 -31 -173 -11 -370 50 -487
31 -61 107 -150 163 -192 l61 -46 -67 -12 c-37 -7 -82 -19 -101 -26 l-34 -14
7 -118 c5 -70 13 -125 21 -138 15 -24 109 -46 395 -94 557 -93 1162 -137 1530
-111 434 31 1077 109 2208 266 216 30 407 61 425 69 66 28 107 93 107 171 0
40 3 46 48 78 81 58 144 146 184 257 l23 65 0 840 0 840 -23 57 c-41 101 -102
156 -265 238 -122 62 -151 73 -207 77 -48 3 -283 -25 -915 -111 -467 -63 -865
-118 -883 -121 -31 -6 -29 -3 46 72 210 208 302 467 302 846 0 234 -41 536
-94 686 -136 389 -500 673 -971 757 -105 18 -381 27 -475 14z m472 -59 c394
-68 708 -280 871 -589 26 -49 47 -93 47 -96 0 -4 -23 13 -52 38 -61 54 -149
98 -238 121 -102 27 -251 17 -359 -24 -347 -128 -553 -411 -654 -896 -63 -301
-94 -570 -78 -676 24 -152 81 -205 293 -274 l97 -32 -52 -16 c-144 -45 -271
-175 -316 -322 -27 -88 -31 -151 -41 -814 -5 -327 -11 -596 -14 -598 -2 -2
-77 36 -166 85 -89 50 -217 116 -285 148 l-124 57 16 31 c24 46 122 190 192
281 62 81 69 100 35 100 -22 0 -157 -173 -237 -303 -58 -94 -46 -91 -169 -45
-62 22 -79 26 -90 15 -19 -19 3 -33 127 -82 151 -58 390 -174 562 -272 l144
-82 -3 -55 -3 -55 -555 -77 c-305 -43 -570 -78 -588 -79 -43 0 -125 54 -191
126 -56 62 -103 151 -126 239 -20 77 -19 249 1 356 49 263 220 619 438 912 94
127 209 258 274 314 l52 45 83 -41 c83 -41 220 -81 276 -81 24 0 31 4 31 19 0
16 -11 22 -57 31 -223 45 -362 129 -428 260 -82 161 -86 387 -11 608 30 88
106 236 191 371 63 100 73 130 49 138 -14 5 -36 -25 -118 -162 l-64 -106 -8
67 c-10 99 2 443 21 559 30 196 88 369 167 503 48 82 190 222 269 266 143 79
263 104 506 105 127 1 200 -4 285 -18z m555 -588 c85 -111 163 -271 200 -411
32 -122 37 -316 10 -426 -66 -266 -244 -467 -475 -537 -98 -29 -260 -24 -336
9 -50 23 -74 18 -63 -11 6 -16 105 -57 138 -57 20 0 21 -4 14 -79 l-7 -80 74
-21 c180 -52 388 -126 388 -139 0 -8 -422 -66 -465 -64 -36 2 -276 78 -326
103 -121 62 -149 172 -114 447 72 555 172 842 364 1046 142 150 350 250 533
256 31 1 41 -5 65 -36z m173 -25 c90 -43 199 -153 227 -228 26 -70 49 -221 63
-415 20 -289 -18 -532 -111 -718 -62 -122 -165 -245 -278 -330 l-35 -25 -45
23 c-61 30 -276 108 -378 136 -91 24 -90 23 -77 102 l7 37 52 0 c131 0 299 71
411 174 318 290 355 795 90 1206 -25 39 -46 73 -46 76 0 11 53 -7 120 -38z
m995 -2153 c216 -57 365 -263 365 -507 0 -89 -14 -163 -42 -230 l-20 -47 26
-31 c31 -38 33 -64 6 -107 -21 -34 -119 -112 -183 -145 -39 -20 -50 -38 -91
-150 -19 -52 -51 -98 -69 -98 -8 0 -12 20 -12 57 0 45 -4 58 -16 61 -13 2 -17
-10 -23 -60 -3 -34 -11 -67 -16 -72 -5 -5 -29 -12 -52 -15 l-43 -6 -10 75 c-8
58 -14 75 -27 78 -15 3 -18 -8 -20 -80 l-3 -83 -56 -3 c-72 -4 -90 11 -134
113 l-34 80 -66 18 c-111 29 -165 63 -165 104 0 12 16 41 36 63 l37 40 -31 68
c-106 228 -25 540 192 739 138 126 302 176 451 138z"/>
<path d="M3795 1880 c-30 -12 -72 -60 -89 -102 -24 -56 -21 -154 7 -203 31
-56 85 -82 137 -66 51 15 96 68 116 137 42 146 -57 282 -171 234z"/>
<path d="M3389 1858 c-53 -36 -93 -125 -93 -208 0 -205 182 -272 269 -100 94
185 -32 403 -176 308z"/>
<path d="M3613 1489 c-43 -16 -103 -135 -103 -205 0 -60 45 -78 93 -36 14 13
23 13 58 3 36 -11 43 -10 60 5 25 22 24 66 -1 139 -29 86 -59 112 -107 94z"/>
</g>
</svg>
