<?xml version="1.0" standalone="no"?>
<!DOCTYPE svg PUBLIC "-//W3C//DTD SVG 20010904//EN"
 "http://www.w3.org/TR/2001/REC-SVG-20010904/DTD/svg10.dtd">
<svg version="1.0" xmlns="http://www.w3.org/2000/svg"
 width="512.000000pt" height="512.000000pt" viewBox="0 0 512.000000 512.000000"
 preserveAspectRatio="xMidYMid meet">

<g transform="translate(0.000000,512.000000) scale(0.100000,-0.100000)"
fill="#000000" stroke="none">
<path d="M2540 4703 c-42 -16 -285 -200 -305 -232 -13 -20 -71 -126 -129 -236
-80 -152 -111 -202 -130 -210 -17 -7 -56 -8 -115 -2 -71 7 -94 6 -108 -5 -28
-19 -208 -219 -221 -245 -13 -24 -4 -61 19 -80 34 -26 869 -479 914 -495 63
-22 126 -22 190 0 43 15 784 415 888 479 46 29 62 64 44 97 -17 33 -198 231
-223 246 -15 9 -44 9 -108 3 -57 -6 -95 -5 -112 2 -19 8 -50 57 -130 210 -58
110 -117 217 -130 237 -14 23 -75 74 -156 131 -135 96 -161 110 -188 100z m48
-730 c1 -298 6 -513 11 -513 5 0 91 95 191 210 109 126 189 210 200 210 10 0
23 -7 30 -15 17 -20 16 -20 -197 -265 -154 -177 -184 -207 -221 -218 -35 -12
-49 -12 -84 0 -37 11 -67 41 -221 218 -213 245 -214 245 -197 265 7 8 20 15
30 15 10 0 93 -88 200 -210 100 -115 186 -210 191 -210 5 0 9 213 9 508 0 280
3 512 7 516 4 4 16 6 28 4 20 -3 20 -8 23 -515z"/>
<path d="M3149 4294 c-19 -24 0 -45 62 -70 30 -11 229 -91 442 -177 286 -116
400 -157 430 -157 36 0 81 23 302 150 143 83 269 150 281 150 26 0 51 -27 162
-182 69 -97 92 -136 92 -159 0 -18 -23 -152 -51 -298 -46 -237 -54 -269 -78
-293 -38 -40 -415 -366 -419 -363 -2 2 1 27 7 56 8 43 7 59 -5 77 -21 32 -67
30 -91 -4 l-19 -26 -23 63 c-65 181 -190 368 -341 513 -75 71 -97 87 -119 84
-51 -6 -37 -34 71 -137 161 -154 266 -315 332 -512 l29 -85 -33 -50 c-18 -27
-41 -59 -51 -72 l-17 -23 -98 92 c-53 50 -111 100 -128 110 -58 35 -110 26
-330 -57 -223 -85 -278 -103 -416 -138 -232 -59 -499 -83 -727 -67 -316 23
-492 68 -903 225 -162 63 -221 70 -277 36 -18 -10 -75 -60 -128 -111 l-96 -91
-51 73 -52 72 28 83 c68 199 173 361 334 515 83 79 102 103 97 119 -13 41 -50
24 -145 -67 -151 -144 -276 -331 -341 -512 l-23 -63 -19 26 c-24 34 -70 36
-91 4 -12 -18 -13 -34 -5 -77 6 -29 9 -54 7 -56 -4 -3 -381 323 -419 363 -24
24 -32 56 -78 293 -28 146 -51 280 -51 298 0 23 23 62 92 159 111 154 136 182
162 182 12 0 138 -67 282 -150 223 -128 267 -150 303 -150 31 0 152 45 467
172 234 94 433 178 440 186 17 17 14 31 -9 46 -13 8 -110 -27 -444 -162 -235
-95 -439 -172 -453 -172 -14 0 -43 11 -65 23 -22 13 -136 79 -254 147 -239
138 -272 148 -330 108 -19 -12 -70 -72 -114 -133 -143 -197 -147 -203 -147
-251 0 -47 94 -553 112 -596 5 -15 30 -46 54 -68 l43 -40 -19 -307 c-24 -383
-25 -472 -2 -538 24 -67 1101 -1746 1161 -1808 25 -27 75 -62 111 -80 l65 -32
905 0 905 0 65 32 c36 18 86 53 111 80 60 62 1138 1741 1161 1808 23 66 22
155 -2 538 l-19 307 43 40 c24 22 49 53 55 68 16 42 111 552 111 598 0 45 -5
54 -147 249 -44 61 -95 121 -114 133 -60 41 -88 31 -370 -132 -146 -84 -265
-146 -279 -146 -14 0 -221 79 -459 175 -239 96 -440 175 -446 175 -7 0 -18 -7
-26 -16z m-2554 -1364 c166 -144 185 -165 195 -203 22 -88 84 -276 126 -384
24 -61 44 -114 44 -118 0 -3 -27 -19 -60 -34 -93 -44 -112 -69 -71 -91 15 -7
36 -2 93 24 l75 34 37 -75 c84 -170 273 -458 322 -489 38 -26 89 -14 418 90
329 105 436 130 645 147 270 23 500 -10 854 -122 441 -141 452 -143 494 -114
47 33 206 273 302 457 l57 106 73 -34 c57 -26 77 -31 92 -23 41 21 17 51 -73
92 -32 14 -58 30 -58 34 0 5 15 45 34 89 33 79 115 327 136 411 9 37 30 59
196 203 102 89 186 161 188 159 5 -7 36 -581 36 -659 0 -52 -6 -88 -19 -117
-35 -76 -1109 -1737 -1148 -1775 -51 -50 -123 -80 -205 -86 l-67 -5 1 31 c2
77 -153 251 -282 316 l-75 38 155 -7 c195 -8 198 -10 265 -133 44 -82 53 -92
75 -90 39 5 35 34 -18 133 -68 128 -95 146 -249 158 -153 12 -1093 12 -1246 0
-166 -13 -176 -22 -282 -221 -45 -85 -85 -154 -90 -154 -4 0 -20 12 -36 26
-32 30 -1110 1704 -1140 1769 -12 28 -19 65 -19 112 -1 83 32 665 38 665 2 0
86 -72 187 -160z m725 -5 c0 -26 -95 -232 -143 -308 l-24 -39 -52 71 -53 71
92 88 c51 48 105 95 119 104 24 17 61 24 61 13z m2541 -13 c14 -9 68 -56 119
-104 l92 -88 -53 -71 -52 -71 -24 39 c-48 76 -143 282 -143 308 0 11 37 4 61
-13z m-2938 -133 c66 -96 66 -97 51 -127 -8 -17 -18 -66 -22 -109 l-8 -78 -33
100 c-29 90 -91 326 -91 349 0 11 19 -13 103 -135z m3349 9 c-17 -67 -45 -168
-63 -223 l-33 -100 -8 78 c-4 43 -14 92 -22 109 -15 30 -15 30 67 148 45 65
83 117 85 115 2 -2 -10 -59 -26 -127z m-2800 96 l68 -26 0 -85 0 -85 -47 -67
c-48 -67 -186 -211 -203 -211 -5 0 -28 24 -50 53 l-40 54 51 88 c42 74 109
218 132 288 8 22 9 22 89 -9z m2265 9 c23 -70 90 -214 132 -288 l51 -88 -40
-54 c-22 -29 -45 -53 -50 -53 -17 0 -155 144 -203 211 l-47 67 0 85 0 85 63
25 c76 31 86 32 94 10z m-1997 -109 l95 -34 3 -75 c2 -41 -1 -75 -5 -75 -4 0
-55 24 -113 53 l-105 53 -3 63 c-3 58 -1 63 15 56 10 -4 61 -22 113 -41z
m1768 -16 l-3 -62 -105 -53 c-58 -29 -108 -53 -112 -53 -14 0 -9 150 5 154 6
2 55 19 107 39 52 19 99 35 103 36 4 1 7 -27 5 -61z m-1443 -73 l110 -22 3
-88 3 -87 -38 6 c-21 4 -82 20 -135 37 l-98 30 0 80 c0 79 0 80 23 73 12 -4
72 -17 132 -29z m1145 -45 l0 -79 -97 -30 c-54 -17 -115 -33 -136 -37 l-38 -6
3 87 3 88 111 22 c62 12 118 25 125 28 8 3 17 6 22 6 4 1 7 -35 7 -79z m-732
-6 l52 -5 0 -91 0 -91 -102 6 c-57 4 -120 10 -140 13 l-38 7 0 89 0 90 88 -6
c48 -4 111 -9 140 -12z m392 -73 l0 -88 -37 -7 c-21 -3 -82 -9 -135 -12 l-98
-7 0 91 0 91 43 5 c23 4 69 8 102 9 33 2 75 4 93 5 l32 2 0 -89z m-1005 -56
c511 -192 1092 -162 1577 81 l87 43 47 -66 c27 -37 85 -103 130 -148 l82 -80
-113 -135 c-62 -74 -146 -170 -186 -213 l-74 -78 -110 45 c-136 56 -256 91
-405 118 -166 31 -514 31 -680 0 -149 -27 -269 -62 -405 -118 l-110 -45 -74
78 c-40 43 -124 139 -186 213 l-113 135 82 80 c45 45 103 111 130 148 l47 66
87 -43 c48 -24 132 -60 187 -81z m655 -539 l0 -64 -67 -7 c-38 -3 -98 -9 -135
-14 l-68 -7 0 67 0 67 68 7 c37 3 74 8 82 9 8 2 39 4 68 5 l52 1 0 -64z m308
47 l42 -6 0 -66 0 -67 -67 8 c-38 4 -98 10 -135 14 l-68 6 0 65 0 66 93 -7
c50 -4 111 -10 135 -13z m-648 -87 l0 -64 -97 -22 c-54 -12 -115 -28 -135 -36
l-38 -13 0 64 0 64 83 25 c82 26 151 43 175 45 8 1 12 -18 12 -63z m860 44
c41 -12 96 -28 123 -36 l47 -16 0 -63 0 -63 -57 18 c-32 10 -93 26 -135 36
l-78 18 0 63 c0 44 4 63 13 63 7 0 46 -9 87 -20z m-1200 -144 l0 -54 -77 -26
c-42 -14 -79 -24 -81 -21 -2 2 6 28 18 58 18 44 30 58 64 75 68 34 76 31 76
-32z m1513 33 c37 -18 48 -31 67 -76 12 -30 20 -56 18 -58 -2 -3 -39 7 -81 21
l-77 26 0 54 c0 63 6 65 73 33z"/>
<path d="M1024 1686 c-3 -9 -4 -22 -1 -28 3 -7 90 -112 195 -234 126 -147 201
-226 225 -237 69 -33 100 -25 314 82 109 54 214 103 233 109 50 16 97 21 347
37 196 13 250 13 445 0 355 -24 331 -17 601 -155 191 -98 223 -106 293 -72 26
12 96 85 231 242 199 231 219 265 162 265 -21 0 -59 -38 -212 -217 -103 -120
-196 -222 -206 -228 -39 -20 -74 -9 -259 84 -266 133 -249 128 -600 151 -205
13 -259 13 -455 0 -367 -24 -344 -18 -614 -154 -180 -90 -216 -101 -254 -81
-10 6 -103 108 -206 228 -185 216 -223 249 -239 208z"/>
</g>
</svg>
